<?xml version="1.0" standalone="no"?>
<!DOCTYPE svg PUBLIC "-//W3C//DTD SVG 20010904//EN"
 "http://www.w3.org/TR/2001/REC-SVG-20010904/DTD/svg10.dtd">
<svg version="1.0" xmlns="http://www.w3.org/2000/svg"
 width="670.000000pt" height="290.000000pt" viewBox="0 0 670.000000 290.000000"
 preserveAspectRatio="xMidYMid meet">

<g transform="translate(0.000000,290.000000) scale(0.100000,-0.100000)"
fill="#000000" stroke="none">
<path d="M6072 2587 c-30 -32 -70 -127 -93 -221 -17 -69 -20 -131 -26 -436
l-6 -355 37 -18 38 -18 -6 -132 c-13 -305 -18 -952 -6 -981 21 -55 72 -73 105
-36 17 18 17 37 4 372 -15 389 -16 1327 -1 1612 5 99 7 190 4 202 -6 32 -26
36 -50 11z"/>
<path d="M527 2431 c-4 -85 -7 -185 -7 -223 0 -52 -3 -68 -14 -68 -21 0 -24
18 -31 205 -4 94 -10 176 -14 183 -7 13 -31 -357 -31 -468 0 -76 15 -122 56
-176 l36 -47 8 -241 c4 -133 4 -394 -1 -581 -13 -565 -12 -612 11 -635 27 -27
56 -25 85 4 21 22 23 29 19 102 -11 170 -19 862 -13 1099 l5 250 32 50 c18 27
37 65 42 85 11 38 11 303 1 490 l-6 115 -14 -222 c-13 -197 -16 -223 -31 -223
-20 0 -29 84 -31 305 -2 140 -2 140 -9 50 -4 -49 -11 -150 -15 -222 -6 -118
-9 -133 -25 -133 -16 0 -19 15 -25 138 -4 75 -10 178 -14 227 l-6 90 -8 -154z"/>
<path d="M2112 2388 c-112 -187 -422 -750 -417 -758 12 -20 25 -9 56 45 l31
55 179 0 179 0 25 -50 25 -50 180 0 181 0 -17 33 c-52 103 -380 725 -390 740
-11 17 -13 15 -32 -15z m-64 -473 l72 -145 -155 0 c-85 0 -155 3 -155 7 0 10
154 283 160 283 3 0 38 -65 78 -145z"/>
<path d="M1284 2384 c-87 -31 -163 -124 -164 -200 0 -84 44 -161 194 -334 98
-113 121 -152 106 -179 -25 -48 -170 -15 -249 58 -40 36 -51 38 -51 13 0 -27
47 -67 115 -99 53 -25 71 -28 155 -28 85 1 102 4 161 32 75 35 112 75 130 143
24 90 -20 173 -195 370 -42 47 -86 104 -97 128 -20 41 -21 44 -4 62 32 36 132
18 203 -36 24 -19 37 -23 44 -16 16 16 -42 67 -99 86 -58 20 -193 20 -249 0z"/>
<path d="M3130 2170 c-61 -121 -112 -220 -114 -220 -3 0 -57 97 -121 215
l-116 215 -180 0 c-98 0 -179 -3 -179 -7 0 -17 436 -791 441 -785 18 19 409
769 409 784 0 10 -7 18 -15 18 -9 0 -55 -80 -125 -220z"/>
<path d="M4705 2378 c-2 -7 -5 -134 -7 -283 l-3 -270 -30 -60 c-24 -49 -38
-64 -76 -83 -50 -25 -167 -47 -205 -38 l-24 6 0 365 0 365 -162 0 -161 0 6
-291 c6 -289 6 -292 32 -346 17 -34 40 -63 64 -79 71 -47 239 -67 366 -43 103
19 168 65 200 143 19 46 34 252 35 474 0 130 -2 152 -15 152 -9 0 -18 -6 -20
-12z"/>
<path d="M3322 2005 l-1 -375 318 0 c254 0 321 3 330 13 6 8 8 17 4 20 -3 4
-80 7 -170 7 l-163 0 0 235 0 235 155 0 c148 0 155 1 155 20 0 19 -7 20 -155
20 l-155 0 0 86 0 86 133 -2 c160 -3 157 -4 157 15 0 13 -40 15 -304 15 l-303
0 -1 -375z"/>
<path d="M4850 2005 l0 -376 158 3 157 3 3 82 3 82 67 -51 c82 -62 194 -117
246 -121 64 -4 53 19 -21 42 -37 11 -93 35 -123 53 l-55 31 50 12 c69 16 104
36 152 88 57 62 86 144 80 227 -10 158 -108 264 -268 290 -35 5 -151 10 -256
10 l-193 0 0 -375z m431 331 c109 -11 189 -66 230 -159 66 -148 -12 -327 -162
-371 -83 -25 -112 -21 -155 19 l-37 35 6 122 c4 66 7 177 7 244 l0 124 28 -5
c15 -2 52 -6 83 -9z"/>
<path d="M1034 1525 c-4 -8 -4 -22 0 -30 5 -13 265 -15 2255 -15 1990 0 2250
2 2255 15 3 8 3 22 0 30 -5 13 -265 15 -2255 15 -1990 0 -2250 -2 -2255 -15z"/>
<path d="M2100 1412 c0 -4 9 -13 20 -20 19 -11 20 -23 20 -182 0 -159 -1 -171
-20 -182 -11 -7 -20 -15 -20 -18 0 -6 130 -4 136 3 3 2 -7 7 -21 11 -24 6 -25
9 -25 91 0 78 2 85 19 85 14 0 38 -28 81 -95 53 -82 66 -95 95 -101 46 -8 65
5 32 22 -22 12 -137 162 -137 180 0 3 11 15 24 25 52 41 57 131 9 169 -22 17
-41 20 -119 20 -52 0 -94 -3 -94 -8z m149 -23 c37 -13 51 -35 51 -82 0 -46
-26 -76 -72 -84 l-38 -6 0 92 c0 99 1 100 59 80z"/>
<path d="M2930 1316 c0 -8 -12 -29 -26 -46 -24 -28 -25 -32 -11 -43 13 -9 17
-34 19 -111 3 -112 11 -123 71 -112 45 8 49 25 7 24 -17 -1 -34 2 -38 6 -4 4
-7 49 -7 99 l0 92 30 3 c46 5 55 22 12 22 -35 0 -37 1 -37 34 0 19 -4 38 -10
41 -5 3 -10 0 -10 -9z"/>
<path d="M4391 1310 c-7 -14 -23 -35 -34 -48 -19 -20 -19 -23 -4 -35 13 -9 17
-33 19 -111 2 -77 6 -101 19 -109 19 -12 89 -1 89 15 0 6 -8 8 -19 5 -42 -11
-51 8 -51 108 l0 95 35 0 c19 0 35 5 35 10 0 6 -15 10 -34 10 -34 0 -35 1 -38
43 -3 41 -3 42 -17 17z"/>
<path d="M2530 1257 c-83 -42 -94 -188 -18 -241 28 -20 61 -20 98 -1 42 22 37
34 -10 28 -53 -7 -86 15 -100 67 -6 22 -8 45 -5 50 3 6 37 10 76 10 l69 0 0
29 c0 20 -9 36 -26 50 -31 24 -49 26 -84 8z m66 -32 c9 -14 14 -28 11 -31 -2
-3 -29 -4 -58 -2 l-54 3 27 28 c34 34 53 34 74 2z"/>
<path d="M2715 1245 c-39 -39 -33 -71 25 -124 28 -25 50 -53 50 -62 0 -46 -75
-49 -86 -4 -9 37 -25 30 -17 -7 7 -39 18 -48 59 -48 41 0 72 26 80 68 6 30 2
37 -45 80 -56 51 -66 86 -29 98 17 5 27 0 45 -22 l23 -29 0 27 c0 50 -64 64
-105 23z"/>
<path d="M3102 1240 c-23 -17 -42 -37 -42 -45 0 -24 20 -18 30 9 11 29 45 42
65 26 8 -7 15 -29 15 -50 0 -36 -2 -39 -55 -60 -39 -16 -57 -29 -61 -45 -15
-60 34 -93 90 -61 27 15 30 16 38 2 11 -20 42 -21 57 -2 9 11 7 15 -9 19 -18
5 -20 13 -20 105 0 93 -2 102 -22 116 -31 22 -39 20 -86 -14z m68 -153 c0 -38
-15 -57 -46 -57 -37 0 -42 39 -10 67 39 33 56 30 56 -10z"/>
<path d="M3624 1252 c-31 -14 -31 -15 -13 -33 15 -15 19 -34 19 -98 0 -70 -3
-82 -21 -94 -19 -14 -17 -15 35 -19 31 -1 56 -1 56 1 0 2 -8 10 -17 17 -15 10
-18 27 -16 95 2 91 15 114 60 103 20 -5 23 -2 23 20 0 31 -18 33 -53 6 -31
-25 -35 -25 -39 -1 -3 17 -5 17 -34 3z"/>
<path d="M3865 1258 c-32 -17 -65 -50 -65 -65 0 -22 20 -15 30 11 11 29 45 42
65 26 8 -7 15 -29 15 -49 0 -35 -3 -37 -60 -63 -52 -23 -60 -30 -60 -53 0 -61
47 -85 98 -49 22 15 24 15 37 -2 11 -16 16 -17 41 -4 28 13 28 14 7 18 -22 3
-23 8 -23 103 0 86 -3 102 -20 119 -23 23 -36 24 -65 8z m34 -214 c-13 -16
-55 -19 -64 -3 -13 21 5 55 37 71 l33 15 3 -34 c2 -19 -2 -41 -9 -49z"/>
<path d="M4062 1252 c-32 -17 -32 -18 -12 -35 17 -14 20 -29 20 -92 0 -62 -4
-79 -20 -95 -11 -11 -20 -21 -20 -22 0 -2 25 -3 55 -3 30 0 55 2 55 4 0 2 -8
9 -17 16 -26 19 -32 158 -8 185 25 28 64 34 86 14 16 -14 19 -32 19 -106 0
-83 -2 -89 -22 -98 -27 -10 -27 -10 40 -13 50 -2 68 7 37 19 -12 5 -15 26 -15
101 0 86 -2 96 -25 118 -30 30 -48 31 -91 4 l-34 -21 0 21 c0 25 -5 25 -48 3z"/>
<path d="M3280 1251 c0 -5 9 -11 20 -14 18 -5 20 -14 20 -99 0 -68 4 -99 16
-116 20 -29 66 -29 107 0 l30 22 -5 -22 c-7 -24 6 -27 50 -16 25 7 30 24 7 24
-12 0 -15 19 -15 115 l0 115 -42 -1 c-42 0 -42 0 -20 -16 20 -14 22 -24 22
-99 0 -82 0 -84 -30 -99 -37 -19 -45 -19 -64 1 -12 12 -16 38 -16 115 l0 99
-40 0 c-22 0 -40 -4 -40 -9z"/>
<path d="M2527 953 c-4 -3 -7 -12 -7 -20 0 -15 26 -18 34 -4 7 11 -18 33 -27
24z"/>
<path d="M2363 938 c-12 -6 -27 -23 -34 -39 -16 -40 2 -81 52 -114 22 -14 44
-36 48 -48 26 -70 -66 -107 -99 -40 -14 28 -14 28 -18 5 -6 -35 15 -52 64 -52
57 0 84 25 84 79 0 35 -6 44 -55 86 -35 31 -55 55 -55 69 0 52 69 65 94 19
l15 -28 1 27 c0 42 -47 60 -97 36z"/>
<path d="M3523 843 c-12 -18 -18 -33 -13 -33 6 0 10 -29 10 -64 0 -35 3 -71 6
-80 7 -19 59 -22 70 -4 4 6 3 8 -4 5 -5 -4 -17 -4 -26 -1 -12 5 -16 21 -16 74
0 67 1 69 28 73 l27 4 -27 2 c-22 1 -27 6 -30 29 l-3 29 -22 -34z"/>
<path d="M2525 824 c-14 -11 -16 -18 -7 -21 8 -3 12 -27 12 -68 0 -50 -4 -66
-17 -74 -14 -8 -9 -10 25 -11 41 0 42 1 27 17 -14 14 -17 31 -13 95 3 43 2 78
-1 78 -3 0 -15 -8 -26 -16z"/>
<path d="M2641 826 c-15 -9 -20 -16 -12 -20 6 -4 11 -34 11 -71 0 -50 -4 -66
-17 -74 -14 -8 -9 -10 26 -11 36 0 42 2 32 14 -7 9 -11 40 -9 78 3 61 4 63 32
66 16 2 32 -2 37 -10 15 -23 10 -115 -7 -132 -14 -15 -12 -16 26 -16 38 0 40
1 26 16 -11 10 -16 34 -16 68 0 59 14 80 52 74 21 -3 23 -9 26 -66 2 -38 -2
-69 -9 -78 -10 -12 -4 -14 32 -14 35 1 40 3 27 11 -15 8 -18 24 -18 79 0 63
-2 71 -25 86 -23 15 -27 15 -49 0 -22 -14 -27 -14 -55 0 -29 14 -34 14 -56 0
-20 -13 -24 -13 -27 -1 -2 11 -7 11 -27 1z"/>
<path d="M2971 814 c-26 -21 -31 -33 -31 -69 0 -60 29 -95 79 -95 87 0 124
115 54 170 -35 27 -65 25 -102 -6z m94 -24 c29 -56 7 -130 -40 -130 -29 0 -55
38 -55 81 0 56 14 79 50 79 23 0 33 -7 45 -30z"/>
<path d="M3171 826 c-15 -9 -20 -16 -12 -20 6 -4 11 -34 11 -71 0 -50 -4 -66
-17 -74 -14 -8 -9 -10 27 -11 34 0 41 3 32 12 -7 7 -12 39 -12 75 0 58 2 63
25 69 46 11 55 0 55 -70 0 -51 -4 -67 -17 -75 -14 -8 -9 -10 27 -11 34 0 41 3
32 12 -7 7 -12 38 -12 69 0 68 -6 86 -31 100 -14 7 -27 5 -48 -6 -25 -13 -30
-13 -33 -1 -2 12 -7 12 -27 2z"/>
<path d="M3392 825 c-33 -24 -28 -59 14 -93 23 -19 35 -37 32 -48 -5 -28 -39
-30 -59 -3 l-17 23 5 -27 c5 -23 10 -27 39 -27 23 0 38 7 48 22 22 31 21 35
-24 79 -24 24 -37 45 -34 54 8 20 41 19 53 -2 9 -16 10 -16 11 5 0 12 -4 22
-9 22 -5 0 -15 2 -23 5 -7 3 -23 -2 -36 -10z"/>
<path d="M3669 825 c-53 -29 -62 -113 -16 -155 46 -43 130 -11 143 54 7 42
-17 93 -52 106 -33 13 -44 12 -75 -5z m74 -20 c39 -39 27 -130 -19 -141 -30
-8 -50 8 -64 52 -11 33 -7 68 12 92 14 17 53 15 71 -3z"/>
<path d="M4107 826 c-12 -9 -14 -16 -8 -21 6 -3 11 -35 11 -70 0 -50 -4 -66
-17 -74 -14 -8 -9 -10 26 -11 36 0 42 2 32 14 -7 9 -11 40 -9 78 3 61 4 63 32
66 37 5 46 -10 46 -80 0 -44 -4 -59 -17 -67 -14 -8 -9 -10 27 -11 34 0 41 3
32 12 -7 7 -12 36 -12 64 0 95 -27 127 -81 100 -25 -12 -29 -13 -29 0 0 17
-10 17 -33 0z"/>
<path d="M3823 815 c9 -8 25 -45 37 -82 13 -38 26 -71 29 -76 4 -4 15 15 25
43 10 27 21 50 25 50 4 0 15 -23 25 -51 10 -28 22 -47 26 -42 4 4 18 40 30 78
12 39 29 76 38 83 14 10 11 12 -16 12 -24 0 -30 -4 -25 -15 7 -19 -16 -106
-27 -100 -4 2 -13 25 -20 51 -11 39 -11 47 1 55 9 6 0 9 -29 9 -39 0 -42 -1
-28 -16 20 -19 20 -32 2 -74 -14 -35 -19 -32 -40 28 -11 29 -11 43 -3 51 8 8
1 11 -27 11 -33 0 -36 -2 -23 -15z"/>
<path d="M6203 475 c0 -22 2 -30 4 -17 2 12 2 30 0 40 -3 9 -5 -1 -4 -23z"/>
<path d="M6260 507 c0 -10 29 -67 34 -67 2 0 7 7 10 16 3 8 2 12 -4 9 -5 -3
-16 7 -24 22 -8 15 -15 24 -16 20z"/>
<path d="M6314 488 c-5 -7 -3 -8 6 -3 10 6 12 1 8 -19 -3 -14 -1 -26 3 -26 5
0 9 14 9 30 0 30 -13 40 -26 18z"/>
</g>
</svg>
